<svg id="visual" viewBox="0 0 960 540" width="960" height="540" xmlns="http://www.w3.org/2000/svg" xmlns:xlink="http://www.w3.org/1999/xlink" version="1.1"><rect x="0" y="0" width="960" height="540" fill="#000214"></rect><defs><linearGradient id="grad1_0" x1="43.8%" y1="0%" x2="100%" y2="100%"><stop offset="14.444444444444446%" stop-color="#000214" stop-opacity="1"></stop><stop offset="85.55555555555554%" stop-color="#000214" stop-opacity="1"></stop></linearGradient></defs><defs><linearGradient id="grad2_0" x1="0%" y1="0%" x2="56.3%" y2="100%"><stop offset="14.444444444444446%" stop-color="#000214" stop-opacity="1"></stop><stop offset="85.55555555555554%" stop-color="#000214" stop-opacity="1"></stop></linearGradient></defs><g transform="translate(960, 0)"><path d="M0 486C-52 453.8 -104 421.5 -167.2 403.7C-230.5 386 -305 382.6 -343.7 343.7C-382.3 304.7 -385.1 230.1 -402.8 166.8C-420.6 103.6 -453.3 51.8 -486 0L0 0Z" fill="#FBAE3C"></path></g><g transform="translate(0, 540)"><path d="M0 -486C63.4 -480.2 126.9 -474.4 186 -449C245.1 -423.6 299.8 -378.7 324.6 -324.6C349.3 -270.4 344 -207.2 365.9 -151.5C387.8 -95.9 436.9 -48 486 0L0 0Z" fill="#FBAE3C"></path></g></svg>