<svg id="visual" viewBox="0 0 960 540" width="960" height="540" xmlns="http://www.w3.org/2000/svg" xmlns:xlink="http://www.w3.org/1999/xlink" version="1.1"><path d="M0 384L22.8 382.7C45.7 381.3 91.3 378.7 137 377.7C182.7 376.7 228.3 377.3 274 377.3C319.7 377.3 365.3 376.7 411.2 370.2C457 363.7 503 351.3 548.8 342.2C594.7 333 640.3 327 686 326.5C731.7 326 777.3 331 823 333.3C868.7 335.7 914.3 335.3 937.2 335.2L960 335L960 541L937.2 541C914.3 541 868.7 541 823 541C777.3 541 731.7 541 686 541C640.3 541 594.7 541 548.8 541C503 541 457 541 411.2 541C365.3 541 319.7 541 274 541C228.3 541 182.7 541 137 541C91.3 541 45.7 541 22.8 541L0 541Z" fill="#d6598d"></path><path d="M0 426L22.8 423.2C45.7 420.3 91.3 414.7 137 407C182.7 399.3 228.3 389.7 274 389.2C319.7 388.7 365.3 397.3 411.2 398C457 398.7 503 391.3 548.8 395.2C594.7 399 640.3 414 686 414.8C731.7 415.7 777.3 402.3 823 394.2C868.7 386 914.3 383 937.2 381.5L960 380L960 541L937.2 541C914.3 541 868.7 541 823 541C777.3 541 731.7 541 686 541C640.3 541 594.7 541 548.8 541C503 541 457 541 411.2 541C365.3 541 319.7 541 274 541C228.3 541 182.7 541 137 541C91.3 541 45.7 541 22.8 541L0 541Z" fill="#974c89"></path><path d="M0 394L22.8 403C45.7 412 91.3 430 137 430.7C182.7 431.3 228.3 414.7 274 416.3C319.7 418 365.3 438 411.2 440.7C457 443.3 503 428.7 548.8 426C594.7 423.3 640.3 432.7 686 431.2C731.7 429.7 777.3 417.3 823 415.3C868.7 413.3 914.3 421.7 937.2 425.8L960 430L960 541L937.2 541C914.3 541 868.7 541 823 541C777.3 541 731.7 541 686 541C640.3 541 594.7 541 548.8 541C503 541 457 541 411.2 541C365.3 541 319.7 541 274 541C228.3 541 182.7 541 137 541C91.3 541 45.7 541 22.8 541L0 541Z" fill="#583f74"></path><path d="M0 456L22.8 454.8C45.7 453.7 91.3 451.3 137 449.8C182.7 448.3 228.3 447.7 274 449.3C319.7 451 365.3 455 411.2 454.8C457 454.7 503 450.3 548.8 453.2C594.7 456 640.3 466 686 464.2C731.7 462.3 777.3 448.7 823 449.2C868.7 449.7 914.3 464.3 937.2 471.7L960 479L960 541L937.2 541C914.3 541 868.7 541 823 541C777.3 541 731.7 541 686 541C640.3 541 594.7 541 548.8 541C503 541 457 541 411.2 541C365.3 541 319.7 541 274 541C228.3 541 182.7 541 137 541C91.3 541 45.7 541 22.8 541L0 541Z" fill="#232e52"></path><path d="M0 482L22.8 487.5C45.7 493 91.3 504 137 505.5C182.7 507 228.3 499 274 492.7C319.7 486.3 365.3 481.7 411.2 480.3C457 479 503 481 548.8 486.5C594.7 492 640.3 501 686 504.2C731.7 507.3 777.3 504.7 823 501.5C868.7 498.3 914.3 494.7 937.2 492.8L960 491L960 541L937.2 541C914.3 541 868.7 541 823 541C777.3 541 731.7 541 686 541C640.3 541 594.7 541 548.8 541C503 541 457 541 411.2 541C365.3 541 319.7 541 274 541C228.3 541 182.7 541 137 541C91.3 541 45.7 541 22.8 541L0 541Z" fill="#01192b"></path></svg>