<svg id="visual" viewBox="0 0 960 540" width="960" height="540" xmlns="http://www.w3.org/2000/svg" xmlns:xlink="http://www.w3.org/1999/xlink" version="1.1"><rect x="0" y="0" width="960" height="540" fill="#001220"></rect><path d="M0 346L22.8 343.5C45.7 341 91.3 336 137 334.5C182.7 333 228.3 335 274 334.8C319.7 334.7 365.3 332.3 411.2 332.3C457 332.3 503 334.7 548.8 338.7C594.7 342.7 640.3 348.3 686 352.3C731.7 356.3 777.3 358.7 823 361.5C868.7 364.3 914.3 367.7 937.2 369.3L960 371L960 541L937.2 541C914.3 541 868.7 541 823 541C777.3 541 731.7 541 686 541C640.3 541 594.7 541 548.8 541C503 541 457 541 411.2 541C365.3 541 319.7 541 274 541C228.3 541 182.7 541 137 541C91.3 541 45.7 541 22.8 541L0 541Z" fill="#fa7268"></path><path d="M0 396L22.8 399.2C45.7 402.3 91.3 408.7 137 405.2C182.7 401.7 228.3 388.3 274 385.7C319.7 383 365.3 391 411.2 392C457 393 503 387 548.8 387.3C594.7 387.7 640.3 394.3 686 395.3C731.7 396.3 777.3 391.7 823 390C868.7 388.3 914.3 389.7 937.2 390.3L960 391L960 541L937.2 541C914.3 541 868.7 541 823 541C777.3 541 731.7 541 686 541C640.3 541 594.7 541 548.8 541C503 541 457 541 411.2 541C365.3 541 319.7 541 274 541C228.3 541 182.7 541 137 541C91.3 541 45.7 541 22.8 541L0 541Z" fill="#eb5967"></path><path d="M0 461L22.8 457.7C45.7 454.3 91.3 447.7 137 442C182.7 436.3 228.3 431.7 274 432.8C319.7 434 365.3 441 411.2 446.3C457 451.7 503 455.3 548.8 449.8C594.7 444.3 640.3 429.7 686 428.2C731.7 426.7 777.3 438.3 823 438.2C868.7 438 914.3 426 937.2 420L960 414L960 541L937.2 541C914.3 541 868.7 541 823 541C777.3 541 731.7 541 686 541C640.3 541 594.7 541 548.8 541C503 541 457 541 411.2 541C365.3 541 319.7 541 274 541C228.3 541 182.7 541 137 541C91.3 541 45.7 541 22.8 541L0 541Z" fill="#da3f67"></path><path d="M0 483L22.8 479.8C45.7 476.7 91.3 470.3 137 472.5C182.7 474.7 228.3 485.3 274 490.8C319.7 496.3 365.3 496.7 411.2 496.3C457 496 503 495 548.8 496.5C594.7 498 640.3 502 686 503.2C731.7 504.3 777.3 502.7 823 497.3C868.7 492 914.3 483 937.2 478.5L960 474L960 541L937.2 541C914.3 541 868.7 541 823 541C777.3 541 731.7 541 686 541C640.3 541 594.7 541 548.8 541C503 541 457 541 411.2 541C365.3 541 319.7 541 274 541C228.3 541 182.7 541 137 541C91.3 541 45.7 541 22.8 541L0 541Z" fill="#c62368"></path></svg>