<svg id="visual" viewBox="0 0 960 540" width="960" height="540" xmlns="http://www.w3.org/2000/svg" xmlns:xlink="http://www.w3.org/1999/xlink" version="1.1"><path d="M0 185L26.7 174.2C53.3 163.3 106.7 141.7 160 144.3C213.3 147 266.7 174 320 174.8C373.3 175.7 426.7 150.3 480 137.7C533.3 125 586.7 125 640 137.7C693.3 150.3 746.7 175.7 800 185.7C853.3 195.7 906.7 190.3 933.3 187.7L960 185L960 0L933.3 0C906.7 0 853.3 0 800 0C746.7 0 693.3 0 640 0C586.7 0 533.3 0 480 0C426.7 0 373.3 0 320 0C266.7 0 213.3 0 160 0C106.7 0 53.3 0 26.7 0L0 0Z" fill="#000214"></path><path d="M0 266L26.7 253.3C53.3 240.7 106.7 215.3 160 217C213.3 218.7 266.7 247.3 320 243.7C373.3 240 426.7 204 480 188.8C533.3 173.7 586.7 179.3 640 197.3C693.3 215.3 746.7 245.7 800 253.7C853.3 261.7 906.7 247.3 933.3 240.2L960 233L960 183L933.3 185.7C906.7 188.3 853.3 193.7 800 183.7C746.7 173.7 693.3 148.3 640 135.7C586.7 123 533.3 123 480 135.7C426.7 148.3 373.3 173.7 320 172.8C266.7 172 213.3 145 160 142.3C106.7 139.7 53.3 161.3 26.7 172.2L0 183Z" fill="#412644"></path><path d="M0 314L26.7 310.5C53.3 307 106.7 300 160 306.3C213.3 312.7 266.7 332.3 320 320.5C373.3 308.7 426.7 265.3 480 245.5C533.3 225.7 586.7 229.3 640 245.7C693.3 262 746.7 291 800 307.2C853.3 323.3 906.7 326.7 933.3 328.3L960 330L960 231L933.3 238.2C906.7 245.3 853.3 259.7 800 251.7C746.7 243.7 693.3 213.3 640 195.3C586.7 177.3 533.3 171.7 480 186.8C426.7 202 373.3 238 320 241.7C266.7 245.3 213.3 216.7 160 215C106.7 213.3 53.3 238.7 26.7 251.3L0 264Z" fill="#933f5c"></path><path d="M0 433L26.7 441.2C53.3 449.3 106.7 465.7 160 470.2C213.3 474.7 266.7 467.3 320 457.3C373.3 447.3 426.7 434.7 480 426.5C533.3 418.3 586.7 414.7 640 419.2C693.3 423.7 746.7 436.3 800 441.8C853.3 447.3 906.7 445.7 933.3 444.8L960 444L960 328L933.3 326.3C906.7 324.7 853.3 321.3 800 305.2C746.7 289 693.3 260 640 243.7C586.7 227.3 533.3 223.7 480 243.5C426.7 263.3 373.3 306.7 320 318.5C266.7 330.3 213.3 310.7 160 304.3C106.7 298 53.3 305 26.7 308.5L0 312Z" fill="#da6954"></path><path d="M0 541L26.7 541C53.3 541 106.7 541 160 541C213.3 541 266.7 541 320 541C373.3 541 426.7 541 480 541C533.3 541 586.7 541 640 541C693.3 541 746.7 541 800 541C853.3 541 906.7 541 933.3 541L960 541L960 442L933.3 442.8C906.7 443.7 853.3 445.3 800 439.8C746.7 434.3 693.3 421.7 640 417.2C586.7 412.7 533.3 416.3 480 424.5C426.7 432.7 373.3 445.3 320 455.3C266.7 465.3 213.3 472.7 160 468.2C106.7 463.7 53.3 447.3 26.7 439.2L0 431Z" fill="#fbae3c"></path></svg>