<svg id="visual" viewBox="0 0 960 540" width="960" height="540" xmlns="http://www.w3.org/2000/svg" xmlns:xlink="http://www.w3.org/1999/xlink" version="1.1"><rect x="0" y="0" width="960" height="540" fill="#00192c"></rect><path d="M0 396L22.8 389.3C45.7 382.7 91.3 369.3 137 367.8C182.7 366.3 228.3 376.7 274 383.2C319.7 389.7 365.3 392.3 411.2 393.3C457 394.3 503 393.7 548.8 384.7C594.7 375.7 640.3 358.3 686 352C731.7 345.7 777.3 350.3 823 358.5C868.7 366.7 914.3 378.3 937.2 384.2L960 390L960 541L937.2 541C914.3 541 868.7 541 823 541C777.3 541 731.7 541 686 541C640.3 541 594.7 541 548.8 541C503 541 457 541 411.2 541C365.3 541 319.7 541 274 541C228.3 541 182.7 541 137 541C91.3 541 45.7 541 22.8 541L0 541Z" fill="#0a3352"></path><path d="M0 429L22.8 424C45.7 419 91.3 409 137 404.5C182.7 400 228.3 401 274 393.7C319.7 386.3 365.3 370.7 411.2 364.7C457 358.7 503 362.3 548.8 371.7C594.7 381 640.3 396 686 403C731.7 410 777.3 409 823 401.5C868.7 394 914.3 380 937.2 373L960 366L960 541L937.2 541C914.3 541 868.7 541 823 541C777.3 541 731.7 541 686 541C640.3 541 594.7 541 548.8 541C503 541 457 541 411.2 541C365.3 541 319.7 541 274 541C228.3 541 182.7 541 137 541C91.3 541 45.7 541 22.8 541L0 541Z" fill="#0f2842"></path><path d="M0 425L22.8 428.8C45.7 432.7 91.3 440.3 137 438.3C182.7 436.3 228.3 424.7 274 424.5C319.7 424.3 365.3 435.7 411.2 435C457 434.3 503 421.7 548.8 419.8C594.7 418 640.3 427 686 431.2C731.7 435.3 777.3 434.7 823 429.8C868.7 425 914.3 416 937.2 411.5L960 407L960 541L937.2 541C914.3 541 868.7 541 823 541C777.3 541 731.7 541 686 541C640.3 541 594.7 541 548.8 541C503 541 457 541 411.2 541C365.3 541 319.7 541 274 541C228.3 541 182.7 541 137 541C91.3 541 45.7 541 22.8 541L0 541Z" fill="#0f1d32"></path><path d="M0 452L22.8 449.2C45.7 446.3 91.3 440.7 137 446.2C182.7 451.7 228.3 468.3 274 470.5C319.7 472.7 365.3 460.3 411.2 455.8C457 451.3 503 454.7 548.8 452C594.7 449.3 640.3 440.7 686 444.2C731.7 447.7 777.3 463.3 823 467.5C868.7 471.7 914.3 464.3 937.2 460.7L960 457L960 541L937.2 541C914.3 541 868.7 541 823 541C777.3 541 731.7 541 686 541C640.3 541 594.7 541 548.8 541C503 541 457 541 411.2 541C365.3 541 319.7 541 274 541C228.3 541 182.7 541 137 541C91.3 541 45.7 541 22.8 541L0 541Z" fill="#0c1223"></path><path d="M0 514L22.8 511.5C45.7 509 91.3 504 137 499.7C182.7 495.3 228.3 491.7 274 492.8C319.7 494 365.3 500 411.2 504.7C457 509.3 503 512.7 548.8 512.3C594.7 512 640.3 508 686 506.3C731.7 504.7 777.3 505.3 823 502.2C868.7 499 914.3 492 937.2 488.5L960 485L960 541L937.2 541C914.3 541 868.7 541 823 541C777.3 541 731.7 541 686 541C640.3 541 594.7 541 548.8 541C503 541 457 541 411.2 541C365.3 541 319.7 541 274 541C228.3 541 182.7 541 137 541C91.3 541 45.7 541 22.8 541L0 541Z" fill="#000214"></path></svg>