<svg id="visual" viewBox="0 0 900 600" width="900" height="600" xmlns="http://www.w3.org/2000/svg" xmlns:xlink="http://www.w3.org/1999/xlink" version="1.1"><rect x="0" y="0" width="900" height="600" fill="#c62368"></rect><path d="M0 427L21.5 425.3C43 423.7 86 420.3 128.8 419.2C171.7 418 214.3 419 257.2 419.2C300 419.3 343 418.7 385.8 411.3C428.7 404 471.3 390 514.2 379.8C557 369.7 600 363.3 642.8 363C685.7 362.7 728.3 368.3 771.2 370.8C814 373.3 857 372.7 878.5 372.3L900 372L900 601L878.5 601C857 601 814 601 771.2 601C728.3 601 685.7 601 642.8 601C600 601 557 601 514.2 601C471.3 601 428.7 601 385.8 601C343 601 300 601 257.2 601C214.3 601 171.7 601 128.8 601C86 601 43 601 21.5 601L0 601Z" fill="#d6598d"></path><path d="M0 473L21.5 470C43 467 86 461 128.8 452.7C171.7 444.3 214.3 433.7 257.2 433C300 432.3 343 441.7 385.8 442.3C428.7 443 471.3 435 514.2 439.2C557 443.3 600 459.7 642.8 460.7C685.7 461.7 728.3 447.3 771.2 438.3C814 429.3 857 425.7 878.5 423.8L900 422L900 601L878.5 601C857 601 814 601 771.2 601C728.3 601 685.7 601 642.8 601C600 601 557 601 514.2 601C471.3 601 428.7 601 385.8 601C343 601 300 601 257.2 601C214.3 601 171.7 601 128.8 601C86 601 43 601 21.5 601L0 601Z" fill="#974c89"></path><path d="M0 438L21.5 448C43 458 86 478 128.8 478.7C171.7 479.3 214.3 460.7 257.2 462.5C300 464.3 343 486.7 385.8 489.8C428.7 493 471.3 477 514.2 474.2C557 471.3 600 481.7 642.8 479.8C685.7 478 728.3 464 771.2 461.7C814 459.3 857 468.7 878.5 473.3L900 478L900 601L878.5 601C857 601 814 601 771.2 601C728.3 601 685.7 601 642.8 601C600 601 557 601 514.2 601C471.3 601 428.7 601 385.8 601C343 601 300 601 257.2 601C214.3 601 171.7 601 128.8 601C86 601 43 601 21.5 601L0 601Z" fill="#583f74"></path><path d="M0 507L21.5 505.7C43 504.3 86 501.7 128.8 500C171.7 498.3 214.3 497.7 257.2 499.5C300 501.3 343 505.7 385.8 505.3C428.7 505 471.3 500 514.2 503.2C557 506.3 600 517.7 642.8 515.8C685.7 514 728.3 499 771.2 499.5C814 500 857 516 878.5 524L900 532L900 601L878.5 601C857 601 814 601 771.2 601C728.3 601 685.7 601 642.8 601C600 601 557 601 514.2 601C471.3 601 428.7 601 385.8 601C343 601 300 601 257.2 601C214.3 601 171.7 601 128.8 601C86 601 43 601 21.5 601L0 601Z" fill="#232e52"></path><path d="M0 536L21.5 542.2C43 548.3 86 560.7 128.8 562.3C171.7 564 214.3 555 257.2 547.8C300 540.7 343 535.3 385.8 533.8C428.7 532.3 471.3 534.7 514.2 540.7C557 546.7 600 556.3 642.8 559.8C685.7 563.3 728.3 560.7 771.2 557.3C814 554 857 550 878.5 548L900 546L900 601L878.5 601C857 601 814 601 771.2 601C728.3 601 685.7 601 642.8 601C600 601 557 601 514.2 601C471.3 601 428.7 601 385.8 601C343 601 300 601 257.2 601C214.3 601 171.7 601 128.8 601C86 601 43 601 21.5 601L0 601Z" fill="#01192b"></path></svg>