<?xml version="1.0" standalone="no"?>
<!DOCTYPE svg PUBLIC "-//W3C//DTD SVG 20010904//EN"
 "http://www.w3.org/TR/2001/REC-SVG-20010904/DTD/svg10.dtd">
<svg version="1.0" xmlns="http://www.w3.org/2000/svg"
 width="1771.000000pt" height="491.000000pt" viewBox="0 0 1771.000000 491.000000"
 preserveAspectRatio="xMidYMid meet">

<g transform="translate(0.000000,491.000000) scale(0.100000,-0.100000)"
fill="#ffffff" stroke="none">
<path d="M906 4888 c-15 -23 -12 -45 54 -369 95 -470 118 -558 159 -606 95
-111 276 -216 495 -288 61 -19 495 -121 965 -226 471 -105 859 -196 863 -202
4 -7 8 -28 8 -47 0 -46 5 -53 75 -94 68 -42 78 -43 105 -16 18 18 19 28 14
108 -4 48 -10 93 -13 100 -10 19 -2652 1653 -2683 1659 -20 4 -30 0 -42 -19z
m1296 -784 c1444 -894 1301 -804 1296 -810 -13 -12 -822 272 -1034 363 l-88
38 -85 152 c-47 84 -87 151 -88 149 -2 -1 24 -59 57 -128 56 -117 67 -148 55
-148 -2 0 -58 25 -124 56 -91 43 -121 62 -130 82 -23 52 -145 271 -149 268 -2
-2 8 -27 22 -54 31 -60 88 -203 84 -208 -2 -1 -46 24 -99 56 -116 71 -225 165
-429 369 -85 85 -148 146 -139 135 114 -140 229 -276 297 -351 46 -51 77 -93
69 -93 -8 0 -66 9 -129 20 -62 10 -129 22 -148 25 -56 8 82 -33 235 -70 122
-31 162 -46 305 -119 l165 -85 -90 -3 -90 -4 104 -2 103 -2 162 -72 161 -73
-160 -5 -160 -5 141 -12 c77 -7 166 -13 197 -13 42 0 82 -10 149 -36 51 -20
239 -87 418 -151 179 -63 330 -119 335 -124 7 -7 5 -8 -5 -5 -8 3 -390 89
-848 191 -459 102 -882 202 -940 221 -59 19 -162 61 -230 94 -105 52 -133 71
-201 138 l-78 77 -37 155 c-50 211 -153 733 -148 748 2 7 8 12 12 12 5 0 573
-349 1262 -776z"/>
<path d="M3255 3975 c-186 -108 -341 -197 -343 -199 -2 -2 31 -25 72 -51 l75
-47 270 156 270 156 826 -477 825 -476 -2 -955 -3 -956 -297 -171 c-163 -94
-325 -190 -360 -213 l-63 -42 150 0 150 0 290 168 290 168 3 1046 2 1046 -894
516 c-492 284 -900 518 -908 521 -7 3 -166 -83 -353 -190z"/>
<path d="M2055 3282 l-200 -117 152 -3 153 -3 142 82 c79 45 151 88 161 94 16
11 4 16 -92 39 -61 14 -112 26 -114 26 -1 -1 -92 -54 -202 -118z"/>
<path d="M5621 3268 c16 -31 1328 -2357 1344 -2384 13 -20 24 -21 280 -28 238
-6 269 -5 285 9 10 9 184 293 386 631 203 337 371 614 374 614 6 0 -19 43 378
-660 178 -316 332 -583 342 -594 17 -18 51 -19 676 -28 536 -7 659 -7 669 4 7
7 261 429 565 938 304 509 557 931 564 937 9 10 21 -4 52 -60 454 -812 1040
-1840 1053 -1847 20 -10 1776 -35 2031 -28 159 4 182 7 259 33 151 52 309 179
393 320 118 195 131 459 33 672 -101 220 -312 378 -551 412 -38 6 -422 15
-854 21 -526 7 -797 14 -822 22 -51 15 -112 69 -137 121 -27 55 -28 146 -2
202 23 52 89 111 141 126 32 10 438 7 2003 -12 1944 -25 1962 -26 2002 -46 51
-27 91 -67 118 -118 28 -55 28 -146 -1 -201 -26 -52 -94 -111 -141 -124 -23
-7 -247 -8 -636 -4 l-600 5 -165 -159 -165 -159 -9 -546 c-5 -300 -6 -553 -3
-562 5 -11 68 45 241 216 248 244 260 260 255 342 -1 23 -2 118 -1 210 l2 168
563 -3 c562 -3 562 -3 642 20 130 38 209 85 311 187 77 76 98 105 137 185 68
137 81 198 74 350 -7 183 -46 296 -147 421 -116 144 -261 235 -430 270 -44 9
-1110 26 -3075 50 l-980 12 -89 -22 c-137 -33 -234 -89 -341 -196 -106 -106
-163 -204 -195 -336 -40 -170 -22 -335 57 -499 39 -81 59 -107 137 -185 99
-98 176 -146 301 -185 88 -28 284 -36 1130 -45 330 -3 616 -10 636 -16 51 -13
99 -48 133 -97 26 -37 31 -55 34 -116 3 -58 0 -81 -16 -112 -27 -54 -62 -88
-113 -114 l-43 -23 -736 8 c-404 4 -818 10 -918 14 l-184 6 -130 230 c-71 127
-312 554 -535 950 -223 396 -413 727 -422 736 -14 14 -54 17 -281 22 -146 3
-271 3 -277 -1 -5 -4 -263 -430 -573 -947 -309 -517 -566 -944 -570 -949 -12
-12 -761 -7 -776 5 -7 5 -40 60 -75 122 -361 647 -623 1105 -641 1120 -19 16
-46 17 -307 15 l-286 -3 -366 -614 -367 -613 -25 43 c-23 40 -222 394 -849
1506 -156 276 -215 373 -231 377 -12 3 -140 6 -285 6 l-263 0 12 -22z"/>
<path d="M4305 3212 l-100 -37 -62 -120 c-34 -66 -62 -127 -63 -135 0 -9 55
-48 130 -94 l130 -79 17 -56 c9 -31 23 -62 32 -68 11 -10 71 -13 224 -13 l209
0 95 -80 c52 -44 97 -80 101 -80 9 0 92 221 92 246 0 11 -19 77 -43 147 l-42
128 -180 139 -180 140 -130 -1 c-124 0 -134 -2 -230 -37z m307 -317 c26 -5 52
-26 106 -85 40 -43 72 -81 72 -84 0 -10 -66 -7 -120 6 -50 12 -52 13 -86 80
-37 73 -43 104 -20 95 8 -3 30 -9 48 -12z m-53 -123 c29 -60 38 -70 70 -79
l36 -10 -52 -2 c-50 -1 -52 0 -58 32 -4 17 -16 49 -26 69 -19 38 -25 73 -11
64 4 -2 22 -36 41 -74z"/>
<path d="M10474 3209 c-29 -33 -1067 -1770 -1061 -1776 3 -2 126 -7 274 -10
229 -5 271 -4 283 9 25 24 1074 1778 1067 1784 -3 3 -126 8 -274 11 l-268 6
-21 -24z"/>
<path d="M1475 3067 c-922 -32 -1429 -54 -1445 -61 -15 -7 -26 -21 -28 -37 -3
-21 43 -71 307 -331 170 -169 327 -318 348 -332 117 -77 366 -74 653 10 63 18
475 173 914 344 440 170 807 310 816 310 10 0 30 -16 44 -35 27 -35 27 -35
106 -35 70 0 81 2 94 22 9 12 16 28 16 34 0 6 -25 46 -56 88 l-55 76 -147 -1
c-81 -1 -786 -24 -1567 -52z m1565 14 c-44 -26 -737 -206 -1003 -260 l-148
-31 -163 85 c-159 83 -236 116 -126 54 30 -17 95 -56 144 -87 104 -65 106 -62
-66 -87 l-115 -17 -150 81 c-83 45 -154 81 -158 81 -5 0 30 -24 76 -53 46 -29
104 -66 128 -82 l45 -30 -55 -7 c-137 -16 -298 0 -614 63 -82 16 -161 31 -175
34 -44 9 90 -34 250 -80 85 -24 183 -49 218 -56 34 -7 62 -16 62 -20 0 -3 -65
-35 -144 -70 -80 -35 -143 -65 -142 -66 3 -3 148 45 301 100 76 27 133 39 240
51 77 9 158 19 180 22 l40 6 -57 -42 c-32 -23 -58 -43 -58 -46 0 -2 35 18 78
45 75 48 82 50 236 76 87 14 160 24 162 22 3 -2 -51 -42 -118 -87 -68 -45
-125 -85 -128 -87 -11 -12 109 52 233 124 116 67 145 79 237 99 58 13 252 61
433 107 180 46 324 80 320 76 -15 -14 -1609 -628 -1698 -654 -120 -34 -301
-65 -386 -65 -39 0 -104 7 -147 16 -95 20 -102 25 -477 396 -214 211 -267 269
-258 279 9 9 381 26 1465 64 1683 61 1557 57 1538 46z"/>
<path d="M3393 2922 c-143 -48 -267 -92 -275 -99 -8 -7 -61 -130 -118 -274
l-105 -261 64 -189 c39 -115 72 -196 85 -208 28 -26 455 -280 484 -287 23 -6
98 30 501 243 120 63 212 118 223 133 15 22 20 69 33 347 14 276 14 325 2 348
-21 40 -548 335 -597 334 -19 0 -153 -40 -297 -87z m515 -184 c182 -111 216
-134 199 -141 -17 -6 -64 18 -225 116 l-205 124 -171 -43 c-94 -24 -175 -43
-181 -43 -15 1 327 117 347 118 10 1 116 -59 236 -131z m-14 -124 l218 -146
-6 -61 c-3 -34 -8 -129 -12 -212 -6 -147 -11 -164 -42 -165 -14 0 -13 80 4
341 l5 87 -188 128 c-103 70 -197 129 -209 132 -12 2 -92 -10 -178 -28 -87
-17 -160 -30 -162 -28 -5 5 304 95 331 97 11 1 118 -65 239 -145z"/>
<path d="M1868 2448 l-78 -29 0 -692 1 -692 884 -510 c487 -280 895 -514 908
-519 19 -7 44 3 138 57 165 95 157 83 88 145 l-58 53 -78 -41 -78 -42 -820
474 -820 473 -5 677 -5 676 -77 -30z"/>
<path d="M2890 1612 c-55 -92 -100 -175 -100 -184 0 -13 70 -212 105 -300 5
-12 652 -598 936 -846 l37 -32 398 50 399 51 50 34 c108 75 250 192 253 208 2
10 -2 24 -8 32 -11 13 -48 14 -244 9 l-231 -6 -26 28 c-15 16 -153 213 -308
439 -155 226 -291 417 -301 426 -17 15 -31 14 -172 -7 -84 -13 -160 -23 -169
-24 -9 0 -121 65 -249 145 -127 80 -240 145 -251 145 -13 0 -46 -47 -119 -168z
m385 -95 l210 -130 113 17 c63 9 116 15 118 13 2 -2 -46 -18 -108 -35 l-112
-31 -35 21 c-20 12 -125 78 -235 146 -109 68 -199 122 -200 120 -2 -2 -22 -31
-46 -65 -23 -35 -45 -63 -48 -63 -2 0 2 10 10 23 8 12 30 48 47 79 30 53 34
57 54 46 12 -6 116 -70 232 -141z m-19 -67 l225 -140 125 20 c68 11 127 20
131 19 13 -1 -221 -68 -239 -69 -9 0 -115 61 -235 136 -120 75 -223 138 -229
141 -6 2 -29 -20 -49 -49 -53 -74 -63 -82 -30 -23 16 28 36 62 44 77 9 16 19
28 23 28 4 0 109 -63 234 -140z m458 -909 c131 -94 244 -171 250 -171 6 0 148
16 316 34 l305 34 125 52 c69 29 128 54 133 57 4 2 7 2 7 0 0 -2 -47 -36 -105
-76 l-105 -72 -351 -40 c-193 -21 -356 -36 -362 -32 -59 35 -547 436 -547 450
0 3 21 -11 48 -30 26 -19 155 -111 286 -206z"/>
</g>
</svg>
