<?xml version="1.0" standalone="no"?>
<svg xmlns:xlink="http://www.w3.org/1999/xlink" id="wave" style="transform:rotate(0deg); transition: 0.3s" viewBox="0 0 1440 490" version="1.1" xmlns="http://www.w3.org/2000/svg"><defs><linearGradient id="sw-gradient-0" x1="0" x2="0" y1="1" y2="0"><stop stop-color="rgba(243, 106, 62, 1)" offset="0%"/><stop stop-color="rgba(255, 179, 11, 1)" offset="100%"/></linearGradient></defs><path style="transform:translate(0, 0px); opacity:1" fill="url(#sw-gradient-0)" d="M0,245L24,212.3C48,180,96,114,144,89.8C192,65,240,82,288,81.7C336,82,384,65,432,89.8C480,114,528,180,576,196C624,212,672,180,720,171.5C768,163,816,180,864,212.3C912,245,960,294,1008,294C1056,294,1104,245,1152,236.8C1200,229,1248,261,1296,236.8C1344,212,1392,131,1440,114.3C1488,98,1536,147,1584,155.2C1632,163,1680,131,1728,106.2C1776,82,1824,65,1872,81.7C1920,98,1968,147,2016,163.3C2064,180,2112,163,2160,171.5C2208,180,2256,212,2304,245C2352,278,2400,310,2448,269.5C2496,229,2544,114,2592,73.5C2640,33,2688,65,2736,81.7C2784,98,2832,98,2880,155.2C2928,212,2976,327,3024,367.5C3072,408,3120,376,3168,302.2C3216,229,3264,114,3312,81.7C3360,49,3408,98,3432,122.5L3456,147L3456,490L3432,490C3408,490,3360,490,3312,490C3264,490,3216,490,3168,490C3120,490,3072,490,3024,490C2976,490,2928,490,2880,490C2832,490,2784,490,2736,490C2688,490,2640,490,2592,490C2544,490,2496,490,2448,490C2400,490,2352,490,2304,490C2256,490,2208,490,2160,490C2112,490,2064,490,2016,490C1968,490,1920,490,1872,490C1824,490,1776,490,1728,490C1680,490,1632,490,1584,490C1536,490,1488,490,1440,490C1392,490,1344,490,1296,490C1248,490,1200,490,1152,490C1104,490,1056,490,1008,490C960,490,912,490,864,490C816,490,768,490,720,490C672,490,624,490,576,490C528,490,480,490,432,490C384,490,336,490,288,490C240,490,192,490,144,490C96,490,48,490,24,490L0,490Z"/><defs><linearGradient id="sw-gradient-1" x1="0" x2="0" y1="1" y2="0"><stop stop-color="rgba(62, 108.112, 243, 1)" offset="0%"/><stop stop-color="rgba(0, 0, 0, 1)" offset="100%"/></linearGradient></defs><path style="transform:translate(0, 50px); opacity:0.9" fill="url(#sw-gradient-1)" d="M0,392L24,359.3C48,327,96,261,144,236.8C192,212,240,229,288,204.2C336,180,384,114,432,138.8C480,163,528,278,576,285.8C624,294,672,196,720,204.2C768,212,816,327,864,351.2C912,376,960,310,1008,245C1056,180,1104,114,1152,122.5C1200,131,1248,212,1296,269.5C1344,327,1392,359,1440,334.8C1488,310,1536,229,1584,179.7C1632,131,1680,114,1728,89.8C1776,65,1824,33,1872,40.8C1920,49,1968,98,2016,98C2064,98,2112,49,2160,24.5C2208,0,2256,0,2304,32.7C2352,65,2400,131,2448,179.7C2496,229,2544,261,2592,285.8C2640,310,2688,327,2736,302.2C2784,278,2832,212,2880,196C2928,180,2976,212,3024,236.8C3072,261,3120,278,3168,236.8C3216,196,3264,98,3312,49C3360,0,3408,0,3432,0L3456,0L3456,490L3432,490C3408,490,3360,490,3312,490C3264,490,3216,490,3168,490C3120,490,3072,490,3024,490C2976,490,2928,490,2880,490C2832,490,2784,490,2736,490C2688,490,2640,490,2592,490C2544,490,2496,490,2448,490C2400,490,2352,490,2304,490C2256,490,2208,490,2160,490C2112,490,2064,490,2016,490C1968,490,1920,490,1872,490C1824,490,1776,490,1728,490C1680,490,1632,490,1584,490C1536,490,1488,490,1440,490C1392,490,1344,490,1296,490C1248,490,1200,490,1152,490C1104,490,1056,490,1008,490C960,490,912,490,864,490C816,490,768,490,720,490C672,490,624,490,576,490C528,490,480,490,432,490C384,490,336,490,288,490C240,490,192,490,144,490C96,490,48,490,24,490L0,490Z"/><defs><linearGradient id="sw-gradient-2" x1="0" x2="0" y1="1" y2="0"><stop stop-color="rgba(64.938, 243, 62, 1)" offset="0%"/><stop stop-color="rgba(255, 255, 255, 1)" offset="100%"/></linearGradient></defs><path style="transform:translate(0, 100px); opacity:0.8" fill="url(#sw-gradient-2)" d="M0,441L24,375.7C48,310,96,180,144,179.7C192,180,240,310,288,310.3C336,310,384,180,432,163.3C480,147,528,245,576,310.3C624,376,672,408,720,424.7C768,441,816,441,864,367.5C912,294,960,147,1008,147C1056,147,1104,294,1152,326.7C1200,359,1248,278,1296,245C1344,212,1392,229,1440,236.8C1488,245,1536,245,1584,261.3C1632,278,1680,310,1728,318.5C1776,327,1824,310,1872,310.3C1920,310,1968,327,2016,326.7C2064,327,2112,310,2160,310.3C2208,310,2256,327,2304,318.5C2352,310,2400,278,2448,261.3C2496,245,2544,245,2592,204.2C2640,163,2688,82,2736,65.3C2784,49,2832,98,2880,163.3C2928,229,2976,310,3024,302.2C3072,294,3120,196,3168,147C3216,98,3264,98,3312,147C3360,196,3408,294,3432,343L3456,392L3456,490L3432,490C3408,490,3360,490,3312,490C3264,490,3216,490,3168,490C3120,490,3072,490,3024,490C2976,490,2928,490,2880,490C2832,490,2784,490,2736,490C2688,490,2640,490,2592,490C2544,490,2496,490,2448,490C2400,490,2352,490,2304,490C2256,490,2208,490,2160,490C2112,490,2064,490,2016,490C1968,490,1920,490,1872,490C1824,490,1776,490,1728,490C1680,490,1632,490,1584,490C1536,490,1488,490,1440,490C1392,490,1344,490,1296,490C1248,490,1200,490,1152,490C1104,490,1056,490,1008,490C960,490,912,490,864,490C816,490,768,490,720,490C672,490,624,490,576,490C528,490,480,490,432,490C384,490,336,490,288,490C240,490,192,490,144,490C96,490,48,490,24,490L0,490Z"/></svg>